<?xml version="1.0" encoding="UTF-8"?>
<!DOCTYPE svg PUBLIC "-//W3C//DTD SVG 1.1//EN" "http://www.w3.org/Graphics/SVG/1.1/DTD/svg11.dtd">
<svg xmlns="http://www.w3.org/2000/svg" version="1.1" width="277px" height="292px" style="shape-rendering:geometricPrecision; text-rendering:geometricPrecision; image-rendering:optimizeQuality; fill-rule:evenodd; clip-rule:evenodd" xmlns:xlink="http://www.w3.org/1999/xlink">
<g><path style="opacity:0.227" fill="#bfbfbf" d="M 123.5,38.5 C 123.5,38.8333 123.5,39.1667 123.5,39.5C 121.95,40.4408 120.284,41.1075 118.5,41.5C 119.659,39.7497 121.326,38.7497 123.5,38.5 Z"/></g>
<g><path style="opacity:0.829" fill="#4d4d4d" d="M 149.5,38.5 C 149.5,38.8333 149.5,39.1667 149.5,39.5C 148.501,78.3298 148.168,117.33 148.5,156.5C 148.5,156.833 148.5,157.167 148.5,157.5C 147.833,137.836 147.5,118.003 147.5,98C 147.5,77.8219 148.167,57.9886 149.5,38.5 Z"/></g>
<g><path style="opacity:0.235" fill="#bdbdbd" d="M 149.5,39.5 C 149.5,39.1667 149.5,38.8333 149.5,38.5C 151.674,38.7497 153.341,39.7497 154.5,41.5C 152.716,41.1075 151.05,40.4408 149.5,39.5 Z"/></g>
<g><path style="opacity:0.078" fill="#e5e5e5" d="M 123.5,38.5 C 124.209,37.596 125.209,37.2627 126.5,37.5C 126.831,64.3386 126.498,91.0052 125.5,117.5C 125.5,117.167 125.5,116.833 125.5,116.5C 126.158,90.1452 125.491,64.1452 123.5,38.5 Z"/></g>
<g><path style="opacity:1" fill="#030303" d="M 99.5,115.5 C 99.5,104.833 99.5,94.1667 99.5,83.5C 98.209,83.2627 97.209,83.596 96.5,84.5C 94.1184,85.3507 92.1184,86.684 90.5,88.5C 90.1583,89.3382 89.4916,89.6716 88.5,89.5C 86.9731,89.427 85.9731,90.0937 85.5,91.5C 85.1583,92.3382 84.4916,92.6716 83.5,92.5C 81.326,92.7497 79.6594,93.7497 78.5,95.5C 78.1583,96.3382 77.4916,96.6716 76.5,96.5C 72.9922,97.5041 69.8255,99.1707 67,101.5C 66.5002,111.494 66.3335,121.494 66.5,131.5C 85.6595,132.497 104.993,132.83 124.5,132.5C 125.161,172.181 124.494,211.514 122.5,250.5C 121.101,249.11 119.434,248.11 117.5,247.5C 116.508,247.672 115.842,247.338 115.5,246.5C 115.027,245.094 114.027,244.427 112.5,244.5C 110.847,244.34 109.514,243.674 108.5,242.5C 105.992,240.076 102.992,238.41 99.5,237.5C 97.6644,235.412 95.3311,234.079 92.5,233.5C 92.0269,232.094 91.0269,231.427 89.5,231.5C 87.847,231.34 86.5137,230.674 85.5,229.5C 85.0269,228.094 84.0269,227.427 82.5,227.5C 81.5084,227.672 80.8417,227.338 80.5,226.5C 80.0269,225.094 79.0269,224.427 77.5,224.5C 75.847,224.34 74.5137,223.674 73.5,222.5C 72.3406,220.75 70.674,219.75 68.5,219.5C 66.6644,217.412 64.3311,216.079 61.5,215.5C 58.9922,213.076 55.9922,211.41 52.5,210.5C 52.0269,209.094 51.0269,208.427 49.5,208.5C 48.5084,208.672 47.8417,208.338 47.5,207.5C 47.0269,206.094 46.0269,205.427 44.5,205.5C 43.5084,205.672 42.8417,205.338 42.5,204.5C 41.525,194.249 41.1917,183.915 41.5,173.5C 48.8333,173.5 56.1667,173.5 63.5,173.5C 64.5,173.5 65.5,173.5 66.5,173.5C 66.3341,178.511 66.5007,183.511 67,188.5C 69.6587,190.246 72.492,191.58 75.5,192.5C 77.153,192.66 78.4863,193.326 79.5,194.5C 80.733,196.796 82.733,198.13 85.5,198.5C 85.5,199.5 85.5,200.5 85.5,201.5C 87.1667,201.5 88.8333,201.5 90.5,201.5C 91.1667,201.5 91.8333,201.5 92.5,201.5C 93.1667,202.167 93.8333,202.833 94.5,203.5C 94.9731,204.906 95.9731,205.573 97.5,205.5C 97.56,206.043 97.8933,206.376 98.5,206.5C 99.8268,190.005 99.8268,173.672 98.5,157.5C 79.5,157.5 60.5,157.5 41.5,157.5C 41.3334,133.831 41.5,110.164 42,86.5C 42.7172,85.9558 43.2172,85.2891 43.5,84.5C 44.5137,83.3263 45.847,82.6596 47.5,82.5C 49.8477,82.4077 51.5144,81.4077 52.5,79.5C 54.674,79.2503 56.3406,78.2503 57.5,76.5C 62.5003,74.3357 67.167,71.669 71.5,68.5C 72.5137,67.3263 73.847,66.6596 75.5,66.5C 77.8008,65.9396 80.1341,65.4396 82.5,65C 82.1667,64.6667 81.8333,64.3333 81.5,64C 83.3187,63.2597 84.6521,62.0931 85.5,60.5C 87.8477,60.4077 89.5144,59.4077 90.5,57.5C 91.9587,57.5674 93.2921,57.2341 94.5,56.5C 98.7814,55.8639 102.781,54.3639 106.5,52C 111.564,48.1794 116.564,45.0128 121.5,42.5C 122.5,66.4907 122.833,90.4907 122.5,114.5C 114.747,114.201 107.08,114.534 99.5,115.5 Z"/></g>
<g><path style="opacity:1" fill="#040404" d="M 157.5,43.5 C 159.153,43.6596 160.486,44.3263 161.5,45.5C 163.336,47.588 165.669,48.9213 168.5,49.5C 173.221,53.5287 178.554,56.5287 184.5,58.5C 184.973,59.9063 185.973,60.573 187.5,60.5C 189.153,60.6596 190.486,61.3263 191.5,62.5C 191.973,63.9063 192.973,64.573 194.5,64.5C 194.297,66.3904 194.963,67.8904 196.5,69C 204.43,73.1025 211.763,77.2692 218.5,81.5C 221.649,83.3439 224.815,85.0105 228,86.5C 228.333,86.1667 228.667,85.8333 229,85.5C 229.5,96.1615 229.667,106.828 229.5,117.5C 222.5,117.5 215.5,117.5 208.5,117.5C 208.666,112.489 208.499,107.489 208,102.5C 207.501,107.823 207.334,113.156 207.5,118.5C 206.673,113.015 206.173,107.348 206,101.5C 204.67,100.418 203.17,99.7512 201.5,99.5C 199.847,99.3404 198.514,98.6737 197.5,97.5C 197.027,96.0937 196.027,95.427 194.5,95.5C 193.508,95.6716 192.842,95.3382 192.5,94.5C 190.853,92.6736 188.853,91.3403 186.5,90.5C 184.847,90.3404 183.514,89.6737 182.5,88.5C 180.235,86.358 177.568,84.6913 174.5,83.5C 173.501,99.4861 173.167,115.486 173.5,131.5C 192.659,132.497 211.993,132.83 231.5,132.5C 231.823,156.575 231.49,180.575 230.5,204.5C 230.158,205.338 229.492,205.672 228.5,205.5C 226.973,205.427 225.973,206.094 225.5,207.5C 225.158,208.338 224.492,208.672 223.5,208.5C 216.004,211.745 209.004,215.745 202.5,220.5C 202.158,221.338 201.492,221.672 200.5,221.5C 198.973,221.427 197.973,222.094 197.5,223.5C 197.158,224.338 196.492,224.672 195.5,224.5C 193.973,224.427 192.973,225.094 192.5,226.5C 189.76,228.56 186.76,230.226 183.5,231.5C 181.973,231.427 180.973,232.094 180.5,233.5C 180.158,234.338 179.492,234.672 178.5,234.5C 173.173,236.159 168.507,238.826 164.5,242.5C 162.337,244.083 160.004,245.416 157.5,246.5C 154.669,247.079 152.336,248.412 150.5,250.5C 149.833,250.5 149.167,250.5 148.5,250.5C 148.5,224.167 148.5,197.833 148.5,171.5C 156.5,171.5 164.5,171.5 172.5,171.5C 172.5,183.167 172.5,194.833 172.5,206.5C 173.791,206.737 174.791,206.404 175.5,205.5C 176.167,205.5 176.5,205.167 176.5,204.5C 178.181,202.992 180.181,201.992 182.5,201.5C 184.027,201.573 185.027,200.906 185.5,199.5C 185.842,198.662 186.508,198.328 187.5,198.5C 189.801,197.94 192.134,197.44 194.5,197C 194.167,196.667 193.833,196.333 193.5,196C 195.319,195.26 196.652,194.093 197.5,192.5C 199.027,192.573 200.027,191.906 200.5,190.5C 202.582,190.528 204.416,189.861 206,188.5C 206.5,178.172 206.666,167.839 206.5,157.5C 187.167,157.5 167.833,157.5 148.5,157.5C 148.5,157.167 148.5,156.833 148.5,156.5C 167.503,156.667 186.503,156.5 205.5,156C 186.767,156.148 168.267,155.314 150,153.5C 149.333,117.5 149.333,81.5 150,45.5C 150.419,44.3279 151.085,43.3279 152,42.5C 152.741,43.6405 153.575,43.6405 154.5,42.5C 155.213,44.435 156.213,44.7683 157.5,43.5 Z"/></g>
<g><path style="opacity:0.565" fill="#aaaaaa" d="M 116.5,42.5 C 116.027,43.9063 115.027,44.573 113.5,44.5C 113.973,43.0937 114.973,42.427 116.5,42.5 Z"/></g>
<g><path style="opacity:0.671" fill="#696969" d="M 123.5,39.5 C 123.5,39.1667 123.5,38.8333 123.5,38.5C 125.491,64.1452 126.158,90.1452 125.5,116.5C 125.167,116.5 124.833,116.5 124.5,116.5C 124.831,90.6612 124.498,64.9946 123.5,39.5 Z"/></g>
<g><path style="opacity:0.19" fill="#d1d1d1" d="M 149.5,38.5 C 148.167,57.9886 147.5,77.8219 147.5,98C 147.5,118.003 147.833,137.836 148.5,157.5C 148.5,157.833 148.5,158.167 148.5,158.5C 146.506,118.514 145.839,78.1805 146.5,37.5C 147.791,37.2627 148.791,37.596 149.5,38.5 Z"/></g>
<g><path style="opacity:0.22" fill="#c6c6c6" d="M 161.5,45.5 C 164.331,46.0787 166.664,47.412 168.5,49.5C 165.669,48.9213 163.336,47.588 161.5,45.5 Z"/></g>
<g><path style="opacity:1" fill="#141414" d="M 123.5,39.5 C 124.498,64.9946 124.831,90.6612 124.5,116.5C 115.983,116.826 107.65,116.493 99.5,115.5C 107.08,114.534 114.747,114.201 122.5,114.5C 122.833,90.4907 122.5,66.4907 121.5,42.5C 116.564,45.0128 111.564,48.1794 106.5,52C 102.781,54.3639 98.7814,55.8639 94.5,56.5C 95.9002,55.8999 96.9002,54.8999 97.5,53.5C 102.5,51.3357 107.167,48.669 111.5,45.5C 111.842,44.6618 112.508,44.3284 113.5,44.5C 115.027,44.573 116.027,43.9063 116.5,42.5C 116.842,41.6618 117.508,41.3284 118.5,41.5C 120.284,41.1075 121.95,40.4408 123.5,39.5 Z"/></g>
<g><path style="opacity:1" fill="#161616" d="M 149.5,39.5 C 151.05,40.4408 152.716,41.1075 154.5,41.5C 156.027,41.427 157.027,42.0937 157.5,43.5C 156.213,44.7683 155.213,44.435 154.5,42.5C 153.575,43.6405 152.741,43.6405 152,42.5C 151.085,43.3279 150.419,44.3279 150,45.5C 149.333,81.5 149.333,117.5 150,153.5C 168.267,155.314 186.767,156.148 205.5,156C 186.503,156.5 167.503,156.667 148.5,156.5C 148.168,117.33 148.501,78.3298 149.5,39.5 Z"/></g>
<g><path style="opacity:0.294" fill="#bcbcbc" d="M 111.5,45.5 C 107.167,48.669 102.5,51.3357 97.5,53.5C 101.507,49.8255 106.173,47.1588 111.5,45.5 Z"/></g>
<g><path style="opacity:0.631" fill="#8c8c8c" d="M 97.5,53.5 C 96.9002,54.8999 95.9002,55.8999 94.5,56.5C 93.2921,57.2341 91.9587,57.5674 90.5,57.5C 92.3356,55.412 94.6689,54.0787 97.5,53.5 Z"/></g>
<g><path style="opacity:0.62" fill="#a3a3a3" d="M 168.5,49.5 C 174.35,51.7072 179.684,54.7072 184.5,58.5C 178.554,56.5287 173.221,53.5287 168.5,49.5 Z"/></g>
<g><path style="opacity:0.573" fill="#919191" d="M 90.5,57.5 C 89.5144,59.4077 87.8477,60.4077 85.5,60.5C 86.6594,58.7497 88.326,57.7497 90.5,57.5 Z"/></g>
<g><path style="opacity:0.173" fill="#c3c3c3" d="M 184.5,58.5 C 186.027,58.427 187.027,59.0937 187.5,60.5C 185.973,60.573 184.973,59.9063 184.5,58.5 Z"/></g>
<g><path style="opacity:0.133" fill="#d0d0d0" d="M 191.5,62.5 C 193.027,62.427 194.027,63.0937 194.5,64.5C 192.973,64.573 191.973,63.9063 191.5,62.5 Z"/></g>
<g><path style="opacity:1" fill="#5f5f5f" d="M 85.5,60.5 C 84.6521,62.0931 83.3187,63.2597 81.5,64C 81.8333,64.3333 82.1667,64.6667 82.5,65C 80.1341,65.4396 77.8008,65.9396 75.5,66.5C 78.4937,64.0002 81.827,62.0002 85.5,60.5 Z"/></g>
<g><path style="opacity:0.208" fill="#c3c3c3" d="M 201.5,68.5 C 203.674,68.7497 205.341,69.7497 206.5,71.5C 204.326,71.2503 202.659,70.2503 201.5,68.5 Z"/></g>
<g><path style="opacity:0.263" fill="#c4c4c4" d="M 71.5,68.5 C 67.167,71.669 62.5003,74.3357 57.5,76.5C 61.5067,72.8255 66.1734,70.1588 71.5,68.5 Z"/></g>
<g><path style="opacity:0.384" fill="#b3b3b3" d="M 206.5,71.5 C 211.827,73.1588 216.493,75.8255 220.5,79.5C 215.5,77.3357 210.833,74.669 206.5,71.5 Z"/></g>
<g><path style="opacity:0.278" fill="#b8b8b8" d="M 57.5,76.5 C 56.3406,78.2503 54.674,79.2503 52.5,79.5C 53.6594,77.7497 55.326,76.7497 57.5,76.5 Z"/></g>
<g><path style="opacity:1" fill="#1c1c1c" d="M 194.5,64.5 C 197.004,65.5839 199.337,66.9172 201.5,68.5C 202.659,70.2503 204.326,71.2503 206.5,71.5C 210.833,74.669 215.5,77.3357 220.5,79.5C 221.492,79.3284 222.158,79.6618 222.5,80.5C 222.973,81.9063 223.973,82.573 225.5,82.5C 227.784,82.9752 229.784,83.9752 231.5,85.5C 231.5,96.5 231.5,107.5 231.5,118.5C 223.5,118.5 215.5,118.5 207.5,118.5C 207.334,113.156 207.501,107.823 208,102.5C 208.499,107.489 208.666,112.489 208.5,117.5C 215.5,117.5 222.5,117.5 229.5,117.5C 229.667,106.828 229.5,96.1615 229,85.5C 228.667,85.8333 228.333,86.1667 228,86.5C 224.815,85.0105 221.649,83.3439 218.5,81.5C 211.763,77.2692 204.43,73.1025 196.5,69C 194.963,67.8904 194.297,66.3904 194.5,64.5 Z"/></g>
<g><path style="opacity:0.616" fill="#888888" d="M 52.5,79.5 C 51.5144,81.4077 49.8477,82.4077 47.5,82.5C 48.6594,80.7497 50.326,79.7497 52.5,79.5 Z"/></g>
<g><path style="opacity:0.227" fill="#b9b9b9" d="M 222.5,80.5 C 224.027,80.427 225.027,81.0937 225.5,82.5C 223.973,82.573 222.973,81.9063 222.5,80.5 Z"/></g>
<g><path style="opacity:0.008" fill="#f3f3f3" d="M 96.5,84.5 C 98.4698,92.7688 99.1364,101.435 98.5,110.5C 97.6706,102.343 97.1706,94.0101 97,85.5C 95.0065,86.914 92.8398,87.914 90.5,88.5C 92.1184,86.684 94.1184,85.3507 96.5,84.5 Z"/></g>
<g><path style="opacity:0.244" fill="#d8d8d8" d="M 182.5,88.5 C 179.847,87.3244 177.181,86.4911 174.5,86C 174.533,100.624 174.533,115.458 174.5,130.5C 193.674,130.17 212.674,130.503 231.5,131.5C 212.167,131.5 192.833,131.5 173.5,131.5C 173.167,115.486 173.501,99.4861 174.5,83.5C 177.568,84.6913 180.235,86.358 182.5,88.5 Z"/></g>
<g><path style="opacity:0.02" fill="#d6d6d6" d="M 88.5,89.5 C 88.0269,90.9063 87.0269,91.573 85.5,91.5C 85.9731,90.0937 86.9731,89.427 88.5,89.5 Z"/></g>
<g><path style="opacity:0.149" fill="#c1c1c1" d="M 186.5,90.5 C 188.853,91.3403 190.853,92.6736 192.5,94.5C 189.802,94.1551 187.802,92.8218 186.5,90.5 Z"/></g>
<g><path style="opacity:0.691" fill="#959595" d="M 43.5,84.5 C 43.2172,85.2891 42.7172,85.9558 42,86.5C 41.5,110.164 41.3334,133.831 41.5,157.5C 60.5,157.5 79.5,157.5 98.5,157.5C 98.5,157.833 98.5,158.167 98.5,158.5C 98.1667,158.5 97.8333,158.5 97.5,158.5C 78.2571,158.826 59.0904,158.493 40,157.5C 39.3333,133.833 39.3333,110.167 40,86.5C 40.8159,85.1772 41.9826,84.5106 43.5,84.5 Z"/></g>
<g><path style="opacity:0.208" fill="#c0c0c0" d="M 83.5,92.5 C 82.3406,94.2503 80.674,95.2503 78.5,95.5C 79.6594,93.7497 81.326,92.7497 83.5,92.5 Z"/></g>
<g><path style="opacity:0.227" fill="#c6c6c6" d="M 194.5,95.5 C 196.027,95.427 197.027,96.0937 197.5,97.5C 195.973,97.573 194.973,96.9063 194.5,95.5 Z"/></g>
<g><path style="opacity:0.302" fill="#b2b2b2" d="M 76.5,96.5 C 73.8211,98.6009 70.9877,100.601 68,102.5C 67.5002,112.161 67.3335,121.828 67.5,131.5C 67.1667,131.5 66.8333,131.5 66.5,131.5C 66.3335,121.494 66.5002,111.494 67,101.5C 69.8255,99.1707 72.9922,97.5041 76.5,96.5 Z"/></g>
<g><path style="opacity:0.318" fill="#a8a8a8" d="M 96.5,84.5 C 97.209,83.596 98.209,83.2627 99.5,83.5C 99.5,94.1667 99.5,104.833 99.5,115.5C 107.65,116.493 115.983,116.826 124.5,116.5C 124.833,116.5 125.167,116.5 125.5,116.5C 125.5,116.833 125.5,117.167 125.5,117.5C 116.494,117.666 107.494,117.5 98.5,117C 97.5863,115.1 97.5863,112.934 98.5,110.5C 99.1364,101.435 98.4698,92.7688 96.5,84.5 Z"/></g>
<g><path style="opacity:0.586" fill="#989898" d="M 231.5,85.5 C 232.495,96.988 232.828,108.655 232.5,120.5C 223.057,120.267 214.057,120.267 205.5,120.5C 205.666,114.491 205.499,108.491 205,102.5C 203.482,101.837 202.315,100.837 201.5,99.5C 203.17,99.7512 204.67,100.418 206,101.5C 206.173,107.348 206.673,113.015 207.5,118.5C 215.5,118.5 223.5,118.5 231.5,118.5C 231.5,107.5 231.5,96.5 231.5,85.5 Z"/></g>
<g><path style="opacity:0.673" fill="#676767" d="M 125.5,131.5 C 126.161,171.847 125.494,211.847 123.5,251.5C 122.833,251.5 122.5,251.167 122.5,250.5C 124.494,211.514 125.161,172.181 124.5,132.5C 104.993,132.83 85.6595,132.497 66.5,131.5C 66.8333,131.5 67.1667,131.5 67.5,131.5C 86.6249,131.469 105.958,131.469 125.5,131.5 Z"/></g>
<g><path style="opacity:0.072" fill="#f0f0f0" d="M 125.5,131.5 C 126.499,171.663 126.832,211.997 126.5,252.5C 125.209,252.737 124.209,252.404 123.5,251.5C 125.494,211.847 126.161,171.847 125.5,131.5 Z"/></g>
<g><path style="opacity:0.47" fill="#7e7e7e" d="M 173.5,131.5 C 192.833,131.5 212.167,131.5 231.5,131.5C 232.167,143.495 232.5,155.662 232.5,168C 232.499,180.519 231.832,192.686 230.5,204.5C 231.49,180.575 231.823,156.575 231.5,132.5C 211.993,132.83 192.659,132.497 173.5,131.5 Z"/></g>
<g><path style="opacity:0.331" fill="#a1a1a1" d="M 148.5,158.5 C 148.5,158.167 148.5,157.833 148.5,157.5C 167.833,157.5 187.167,157.5 206.5,157.5C 206.666,167.839 206.5,178.172 206,188.5C 204.416,189.861 202.582,190.528 200.5,190.5C 201.848,189.399 203.348,188.399 205,187.5C 205.5,177.839 205.666,168.172 205.5,158.5C 186.5,158.5 167.5,158.5 148.5,158.5 Z"/></g>
<g><path style="opacity:0.013" fill="#f8f8f8" d="M 97.5,158.5 C 97.8333,158.5 98.1667,158.5 98.5,158.5C 98.8296,174.342 98.4963,190.009 97.5,205.5C 95.9731,205.573 94.9731,204.906 94.5,203.5C 95.4959,203.414 96.3292,203.748 97,204.5C 97.4999,189.17 97.6666,173.837 97.5,158.5 Z"/></g>
<g><path style="opacity:0.21" fill="#cfcfcf" d="M 176.5,204.5 C 176.5,205.167 176.167,205.5 175.5,205.5C 173.522,194.215 172.855,182.548 173.5,170.5C 164.833,170.5 156.167,170.5 147.5,170.5C 147.169,197.339 147.502,224.005 148.5,250.5C 149.167,250.5 149.833,250.5 150.5,250.5C 149.713,252.104 148.38,252.771 146.5,252.5C 146.5,224.833 146.5,197.167 146.5,169.5C 155.833,169.5 165.167,169.5 174.5,169.5C 173.855,181.548 174.522,193.215 176.5,204.5 Z"/></g>
<g><path style="opacity:0.868" fill="#464646" d="M 175.5,205.5 C 174.791,206.404 173.791,206.737 172.5,206.5C 172.5,194.833 172.5,183.167 172.5,171.5C 164.5,171.5 156.5,171.5 148.5,171.5C 148.5,197.833 148.5,224.167 148.5,250.5C 147.502,224.005 147.169,197.339 147.5,170.5C 156.167,170.5 164.833,170.5 173.5,170.5C 172.855,182.548 173.522,194.215 175.5,205.5 Z"/></g>
<g><path style="opacity:0.681" fill="#a0a0a0" d="M 63.5,172.5 C 63.5,172.833 63.5,173.167 63.5,173.5C 56.1667,173.5 48.8333,173.5 41.5,173.5C 41.1917,183.915 41.525,194.249 42.5,204.5C 41.2502,204.423 40.4169,203.756 40,202.5C 39.1678,192.483 39.3344,182.483 40.5,172.5C 48.2951,171.185 55.9618,171.185 63.5,172.5 Z"/></g>
<g><path style="opacity:0.443" fill="#8e8e8e" d="M 98.5,157.5 C 99.8268,173.672 99.8268,190.005 98.5,206.5C 97.8933,206.376 97.56,206.043 97.5,205.5C 98.4963,190.009 98.8296,174.342 98.5,158.5C 98.5,158.167 98.5,157.833 98.5,157.5 Z"/></g>
<g><path style="opacity:0.318" fill="#aaaaaa" d="M 75.5,192.5 C 72.492,191.58 69.6587,190.246 67,188.5C 66.5007,183.511 66.3341,178.511 66.5,173.5C 65.5,173.5 64.5,173.5 63.5,173.5C 63.5,173.167 63.5,172.833 63.5,172.5C 64.6879,171.316 65.8545,171.316 67,172.5C 67.3333,177.5 67.6667,182.5 68,187.5C 70.8239,188.818 73.3239,190.485 75.5,192.5 Z"/></g>
<g><path style="opacity:0.612" fill="#aaaaaa" d="M 200.5,190.5 C 200.027,191.906 199.027,192.573 197.5,192.5C 197.973,191.094 198.973,190.427 200.5,190.5 Z"/></g>
<g><path style="opacity:0.867" fill="#959595" d="M 79.5,194.5 C 81.8816,195.351 83.8816,196.684 85.5,198.5C 82.733,198.13 80.733,196.796 79.5,194.5 Z"/></g>
<g><path style="opacity:1" fill="#626262" d="M 197.5,192.5 C 196.652,194.093 195.319,195.26 193.5,196C 193.833,196.333 194.167,196.667 194.5,197C 192.134,197.44 189.801,197.94 187.5,198.5C 190.494,196 193.827,194 197.5,192.5 Z"/></g>
<g><path style="opacity:1" fill="#5d5d5d" d="M 85.5,198.5 C 87.674,198.75 89.3406,199.75 90.5,201.5C 88.8333,201.5 87.1667,201.5 85.5,201.5C 85.5,200.5 85.5,199.5 85.5,198.5 Z"/></g>
<g><path style="opacity:0.004" fill="#fefffe" d="M 92.5,200.5 C 93.8333,201.167 93.8333,201.167 92.5,200.5 Z"/></g>
<g><path style="opacity:0.749" fill="#8a8a8a" d="M 185.5,199.5 C 185.027,200.906 184.027,201.573 182.5,201.5C 182.973,200.094 183.973,199.427 185.5,199.5 Z"/></g>
<g><path style="opacity:0.247" fill="#c0c0c0" d="M 44.5,205.5 C 46.0269,205.427 47.0269,206.094 47.5,207.5C 45.9731,207.573 44.9731,206.906 44.5,205.5 Z"/></g>
<g><path style="opacity:0.004" fill="#d7d7d7" d="M 228.5,205.5 C 228.027,206.906 227.027,207.573 225.5,207.5C 225.973,206.094 226.973,205.427 228.5,205.5 Z"/></g>
<g><path style="opacity:0.239" fill="#c5c5c5" d="M 49.5,208.5 C 51.0269,208.427 52.0269,209.094 52.5,210.5C 50.9731,210.573 49.9731,209.906 49.5,208.5 Z"/></g>
<g><path style="opacity:0.153" fill="#cacaca" d="M 52.5,210.5 C 55.9922,211.41 58.9922,213.076 61.5,215.5C 58.0078,214.59 55.0078,212.924 52.5,210.5 Z"/></g>
<g><path style="opacity:0.176" fill="#c3c3c3" d="M 223.5,208.5 C 216.996,213.255 209.996,217.255 202.5,220.5C 209.004,215.745 216.004,211.745 223.5,208.5 Z"/></g>
<g><path style="opacity:0.157" fill="#c5c5c5" d="M 61.5,215.5 C 64.3311,216.079 66.6644,217.412 68.5,219.5C 65.6689,218.921 63.3356,217.588 61.5,215.5 Z"/></g>
<g><path style="opacity:0.11" fill="#d1d1d1" d="M 68.5,219.5 C 70.674,219.75 72.3406,220.75 73.5,222.5C 71.326,222.25 69.6594,221.25 68.5,219.5 Z"/></g>
<g><path style="opacity:0.039" fill="#c9c9c9" d="M 200.5,221.5 C 200.027,222.906 199.027,223.573 197.5,223.5C 197.973,222.094 198.973,221.427 200.5,221.5 Z"/></g>
<g><path style="opacity:0.235" fill="#c2c2c2" d="M 77.5,224.5 C 79.0269,224.427 80.0269,225.094 80.5,226.5C 78.9731,226.573 77.9731,225.906 77.5,224.5 Z"/></g>
<g><path style="opacity:0.031" fill="#d9d9d9" d="M 195.5,224.5 C 195.027,225.906 194.027,226.573 192.5,226.5C 192.973,225.094 193.973,224.427 195.5,224.5 Z"/></g>
<g><path style="opacity:0.243" fill="#c1c1c1" d="M 82.5,227.5 C 84.0269,227.427 85.0269,228.094 85.5,229.5C 83.9731,229.573 82.9731,228.906 82.5,227.5 Z"/></g>
<g><path style="opacity:0.259" fill="#c4c4c4" d="M 89.5,231.5 C 91.0269,231.427 92.0269,232.094 92.5,233.5C 90.9731,233.573 89.9731,232.906 89.5,231.5 Z"/></g>
<g><path style="opacity:0.051" fill="#d4d4d4" d="M 183.5,231.5 C 183.027,232.906 182.027,233.573 180.5,233.5C 180.973,232.094 181.973,231.427 183.5,231.5 Z"/></g>
<g><path style="opacity:0.039" fill="#c9c9c9" d="M 92.5,233.5 C 95.3311,234.079 97.6644,235.412 99.5,237.5C 96.6689,236.921 94.3356,235.588 92.5,233.5 Z"/></g>
<g><path style="opacity:0.133" fill="#c6c6c6" d="M 99.5,237.5 C 102.992,238.41 105.992,240.076 108.5,242.5C 105.008,241.59 102.008,239.924 99.5,237.5 Z"/></g>
<g><path style="opacity:0.141" fill="#cacaca" d="M 178.5,234.5 C 174.493,238.174 169.827,240.841 164.5,242.5C 168.507,238.826 173.173,236.159 178.5,234.5 Z"/></g>
<g><path style="opacity:0.263" fill="#bababa" d="M 112.5,244.5 C 114.027,244.427 115.027,245.094 115.5,246.5C 113.973,246.573 112.973,245.906 112.5,244.5 Z"/></g>
<g><path style="opacity:0.224" fill="#c0c0c0" d="M 157.5,246.5 C 155.664,248.588 153.331,249.921 150.5,250.5C 152.336,248.412 154.669,247.079 157.5,246.5 Z"/></g>
<g><path style="opacity:0.282" fill="#c2c2c2" d="M 117.5,247.5 C 119.434,248.11 121.101,249.11 122.5,250.5C 120.067,250.727 118.401,249.727 117.5,247.5 Z"/></g>
</svg>
